<?xml version="1.0" encoding="utf-8"?>
<!-- Generator: Adobe Illustrator 28.0.0, SVG Export Plug-In . SVG Version: 6.00 Build 0)  -->
<svg version="1.0" id="Calque_1" xmlns="http://www.w3.org/2000/svg" xmlns:xlink="http://www.w3.org/1999/xlink" x="0px" y="0px"
	 viewBox="0 0 1700.18 723.64" style="enable-background:new 0 0 1700.18 723.64;" xml:space="preserve">
<style type="text/css">
	.st0{fill:#FFFFFF;}
	.st1{fill:#FDEB1A;}
	.st2{fill:#E54620;}
	.st3{fill:#662383;}
	.st4{fill:#5DC5F1;}
	.st5{fill:#009DD9;}
	.st6{fill:#E5077E;}
	.st7{fill:#AFCA11;}
	.st8{fill:#69B430;}
	.st9{fill:#292A72;}
</style>
<g>
	<g id="_x33_5ab229d-3827-4502-802d-3afe8575627d_x40_1_00000098190442239347549020000011846933713129003149_">
		<g>
			<path d="M879.4,398.77h-24.61v93.31h-47.51V249.76h94.68c11.85,0,22.5,1.94,31.96,5.81c9.45,3.88,17.54,9.12,24.27,15.72
				c6.72,6.61,11.9,14.47,15.55,23.58c3.64,9.12,5.47,18.92,5.47,29.39c0,17.09-4.61,31.67-13.84,43.75
				c-9.23,12.08-21.82,20.4-37.77,24.95l51.95,99.12h-52.63L879.4,398.77z M893.07,358.1c12.08,0,21.42-3.08,28.03-9.23
				c6.61-6.15,9.91-14.24,9.91-24.27c0-10.25-3.31-18.46-9.91-24.61c-6.61-6.15-15.95-9.23-28.03-9.23h-38.28v67.33H893.07z"/>
			<path d="M1019,492.08V249.76h151.75v44.43h-104.59v55.37h94.68v42.04h-94.68v56.05h104.59v44.43H1019z"/>
			<path d="M1336.29,319.85c-0.68-3.39-1.86-7.05-3.55-11c-1.69-3.95-4.23-7.62-7.62-11c-3.39-3.39-7.73-6.21-13.04-8.46
				c-5.31-2.25-11.8-3.39-19.47-3.39c-5.65,0-10.78,0.85-15.41,2.54c-4.63,1.69-8.58,3.95-11.85,6.77
				c-3.27,2.83-5.81,6.04-7.62,9.65c-1.81,3.61-2.71,7.45-2.71,11.51c0,6.55,2.14,12.25,6.43,17.1c4.29,4.86,10.84,8.18,19.64,9.99
				l33.52,6.43c10.83,2.03,20.43,5.31,28.78,9.82c8.35,4.52,15.35,9.88,20.99,16.08c5.64,6.21,9.93,13.15,12.87,20.82
				c2.93,7.68,4.4,15.69,4.4,24.04c0,9.26-1.92,18.34-5.76,27.26c-3.84,8.92-9.43,16.82-16.76,23.7
				c-7.34,6.89-16.37,12.47-27.09,16.76c-10.72,4.28-23.08,6.43-37.08,6.43c-16.03,0-29.8-2.32-41.31-6.94
				c-11.51-4.62-21.16-10.55-28.95-17.78c-7.79-7.22-13.71-15.29-17.78-24.21c-4.06-8.91-6.55-17.66-7.45-26.24l43.34-11.51
				c0.45,5.87,1.86,11.51,4.23,16.93c2.37,5.42,5.7,10.22,9.99,14.39c4.29,4.18,9.59,7.51,15.91,9.99
				c6.32,2.49,13.77,3.72,22.35,3.72c12.64,0,22.29-2.76,28.95-8.29c6.65-5.53,9.99-12.58,9.99-21.16c0-7-2.49-13.04-7.45-18.12
				c-4.97-5.08-12.19-8.52-21.67-10.33l-33.52-6.77c-19.19-3.84-34.48-11.68-45.88-23.53c-11.4-11.85-17.1-26.92-17.1-45.2
				c0-10.61,2.2-20.48,6.6-29.63c4.4-9.14,10.44-17.1,18.12-23.87c7.67-6.77,16.59-12.07,26.75-15.91
				c10.16-3.84,20.88-5.76,32.17-5.76c14.44,0,26.8,1.98,37.08,5.92c10.27,3.95,18.79,8.97,25.56,15.07s12.02,12.81,15.74,20.15
				c3.73,7.34,6.26,14.39,7.62,21.16L1336.29,319.85z"/>
			<path d="M1406.38,369.96c0-19.41,3.39-36.85,10.16-52.31c6.77-15.46,15.8-28.61,27.09-39.45c11.29-10.84,24.38-19.13,39.28-24.89
				c14.9-5.76,30.47-8.63,46.73-8.63c16.25,0,31.88,2.88,46.9,8.63c15.01,5.76,28.16,14.05,39.45,24.89
				c11.29,10.83,20.32,23.99,27.09,39.45c6.77,15.47,10.16,32.9,10.16,52.31c0,19.42-3.39,36.8-10.16,52.15
				c-6.77,15.35-15.8,28.44-27.09,39.28c-11.29,10.83-24.44,19.13-39.45,24.89c-15.02,5.76-30.64,8.63-46.9,8.63
				c-16.25,0-31.83-2.88-46.73-8.63c-14.9-5.76-27.99-14.05-39.28-24.89c-11.29-10.83-20.32-23.92-27.09-39.28
				C1409.77,406.76,1406.38,389.37,1406.38,369.96z M1454.8,369.62c0,13.54,2.14,25.34,6.43,35.38c4.28,10.05,9.99,18.34,17.1,24.89
				c7.11,6.55,15.12,11.46,24.04,14.73c8.91,3.28,18,4.91,27.26,4.91c9.25,0,18.4-1.63,27.43-4.91c9.03-3.27,17.1-8.18,24.21-14.73
				c7.11-6.54,12.81-14.84,17.1-24.89c4.29-10.04,6.43-21.84,6.43-35.38c0-13.54-2.15-25.34-6.43-35.38
				c-4.29-10.04-9.99-18.34-17.1-24.89c-7.11-6.55-15.18-11.45-24.21-14.73c-9.03-3.27-18.17-4.91-27.43-4.91
				c-9.26,0-18.34,1.64-27.26,4.91c-8.92,3.28-16.93,8.18-24.04,14.73c-7.11,6.55-12.81,14.84-17.1,24.89
				C1456.94,344.28,1454.8,356.08,1454.8,369.62z"/>
		</g>
		<path d="M1037.84,199.34c27.22-13.37,47.34-27.66,60.83-38.42c18.46-14.73,39.42-31.45,59.23-59.23
			c5.25-7.36,21.94-31.65,44.82-52.83c4.37-4.04,13.03-11.74,24.01-11.21c7.59,0.37,13.01,4.5,19.21,9.61
			c17.82,14.67,41.47,36.87,59.23,51.23c3.21,2.59,8.38,6.67,16.01,8c11.13,1.94,20.87-3.11,24.01-4.8
			c11.78-6.31,11.81-13.11,20.81-16.01c8.63-2.78,17.05,0.74,22.41,3.2c48.71,22.31,128.07,72.04,128.07,72.04
			c22.24,13.94,57.21,30.92,108.86,38.42c-12.04,0.17-28.6-0.32-48.03-3.2c-19.26-2.86-58.21-8.63-97.65-32.02
			c-10.06-5.96-58.86-36.03-90.45-60.03c-2.89-2.2-11.93-9.12-16.01-6.4c-5.11,3.41,0.3,20.1,0.8,21.61
			c2.11,6.36,3.51,6.43,9.61,19.21c5.93,12.43,6.9,16.32,6.4,20.81c-0.29,2.59-0.97,8.75-4.8,11.21
			c-5.57,3.58-17.49-1.11-44.82-24.01c-53.11-44.5-84.85-78.44-84.85-78.44c-8.58-9.17-15.22-16.61-24.01-16.01
			c-13.34,0.92-23.48,19.78-35.22,41.62c-6.97,12.97-6.76,15.12-12.81,27.21c-14.13,28.25-30.94,47.96-44.82,64.03
			c-22.03,25.51-32,30.86-38.42,33.62c-6.88,2.95-17.44,7.33-30.42,4.8C1050.37,219.56,1040.04,203.04,1037.84,199.34z"/>
	</g>
	<path d="M442.64,643.02c-150.9,43-308.08-44.5-351.09-195.41C48.56,296.7,136.04,139.49,286.97,96.49
		c150.93-43,308.1,44.49,351.1,195.44C681.06,442.82,593.59,600,442.64,643.02"/>
	<path class="st0" d="M485.87,490.82h-55.34V350.04l-62.61,102.73h-6.23l-62.61-102.73v140.78h-55.34V248.7h55.34l65.72,107.57
		l65.72-107.57h55.34V490.82z"/>
	<g>
		<path class="st1" d="M627.51,191.14l-28.99,19.55c10.21,15.14,19.05,31.45,26.29,48.8l32.58-13.64
			C649.22,226.56,639.17,208.25,627.51,191.14z"/>
		<path class="st2" d="M627.5,191.13c-28.95-42.49-67.93-77.56-113.54-101.86l-16.32,30.5c40.03,21.4,74.9,52.39,100.88,90.91
			L627.5,191.13z"/>
		<path class="st1" d="M364.81,52.09c-24.22,0-47.78,2.8-70.45,7.94l7.65,33.56c68.51-15.72,137.51-4.87,195.63,26.19l16.32-30.5
			C469.48,65.57,418.73,52.09,364.81,52.09z"/>
		<path class="st3" d="M604.52,578.07c23.46-26.97,42.42-57.91,55.77-91.71l-33.68-13.44c-12,29.98-29.06,57.79-50.47,82.09
			L604.52,578.07z"/>
		<path class="st4" d="M59.74,458.27c10.92,37.69,28.57,72.51,51.67,103.02l29.03-22.11c-20.24-26.58-36.04-57.22-46.03-91.13
			L59.74,458.27z"/>
		<path class="st5" d="M47.14,369.76c0,30.73,4.45,60.4,12.59,88.51l34.68-10.23c-0.24-0.8-0.49-1.59-0.71-2.39
			c-42.65-149.73,44.14-305.7,193.89-348.36c4.8-1.37,9.61-2.6,14.43-3.7l-7.65-33.56C152.84,92.09,47.14,218.54,47.14,369.76z"/>
		<path class="st6" d="M657.4,245.85l-32.58,13.64c4.27,10.22,8,20.79,11.1,31.71c17.77,62.37,13.06,125.82-9.3,181.72l33.68,13.44
			c14.26-36.11,22.18-75.42,22.18-116.59C682.48,325.8,673.54,283.92,657.4,245.85z"/>
		<path class="st7" d="M140.44,539.18l-29.03,22.11c11.41,15.07,24.14,29.08,38,41.88l24.79-27.05
			C161.94,564.9,150.63,552.56,140.44,539.18z"/>
		<path class="st8" d="M149.41,603.17c56.58,52.24,132.16,84.2,215.22,84.25v-37.04c-71.2-0.01-139.08-27.22-190.44-74.26
			L149.41,603.17z"/>
		<path class="st9" d="M442.02,639.52c-25.82,7.36-51.82,10.86-77.39,10.86v37.04c0.06,0,0.12,0,0.18,0
			c95.71,0,181.47-42.39,239.71-109.35l-28.38-23.06C541.66,594.14,495.92,624.16,442.02,639.52z"/>
	</g>
</g>
</svg>
